<?xml version="1.0" encoding="utf-8"?>
<!-- Generator: Adobe Illustrator 23.0.3, SVG Export Plug-In . SVG Version: 6.00 Build 0)  -->
<svg version="1.1" id="Capa_1" xmlns="http://www.w3.org/2000/svg" xmlns:xlink="http://www.w3.org/1999/xlink" x="0px" y="0px"
	 viewBox="0 0 198.9 70" style="enable-background:new 0 0 198.9 70;" xml:space="preserve">
<style type="text/css">
	.st0{fill:#FFFFFF;}
	.st1{fill:none;}
</style>
<g>
	<path class="st0" d="M186.2,15.1h-1V18h0c-0.2-0.6-0.9-0.9-1.4-0.9c-1.8,0-2.1,2.1-2.1,3.4c0,2.1,0.6,3.4,2.1,3.4
		c0.7,0,1.3-0.5,1.4-1h0v0.8h1V15.1z M182.7,20.5c0-1.6,0.2-2.6,1.2-2.6c1.1,0,1.3,1.3,1.3,2.6c0,1.5-0.2,2.6-1.3,2.6
		C183,23.1,182.7,22.1,182.7,20.5 M179.5,21.9c0,0.7-0.6,1.2-1.3,1.2c-0.7,0-0.9-0.5-0.9-1.1c0-0.6,0.2-0.8,0.5-1
		c0.5-0.3,1.4-0.4,1.7-0.8L179.5,21.9L179.5,21.9z M177.4,19.2L177.4,19.2c0-0.3,0-1.3,1.1-1.3c0.7,0,1,0.4,1,1c0,0.5,0,0.8-0.7,1
		l-1.4,0.4c-0.8,0.3-1.2,0.9-1.2,1.8c0,1.2,0.6,1.9,1.8,1.9c0.6,0,1.2-0.4,1.6-0.9h0c0,0.8,0.5,0.8,0.9,0.8c0.3,0,0.5,0,0.6-0.1V23
		c0,0-0.1,0.1-0.2,0.1c-0.3,0-0.3-0.3-0.3-0.5v-3.6c0-0.7,0-1.9-2-1.9c-1.6,0-2.2,0.7-2.2,2.1C176.3,19.2,177.4,19.2,177.4,19.2z
		 M175.2,15.1h-1V18h0c-0.2-0.6-0.9-0.9-1.4-0.9c-1.8,0-2.1,2.1-2.1,3.4c0,2.1,0.6,3.4,2.1,3.4c0.7,0,1.3-0.5,1.4-1h0v0.8h1
		L175.2,15.1L175.2,15.1z M171.7,20.5c0-1.6,0.2-2.6,1.2-2.6c1.1,0,1.3,1.3,1.3,2.6c0,1.5-0.2,2.6-1.3,2.6
		C171.9,23.1,171.7,22.1,171.7,20.5 M168.4,16.2h1v-1.2h-1V16.2z M168.4,23.8h1v-6.5h-1V23.8z M167.3,19.1c0-0.8-0.1-2.1-2-2.1
		c-1.1,0-2.1,0.6-2.1,1.8c0,1.4,0.8,1.6,1.6,1.8c0.8,0.3,1.6,0.5,1.6,1.3c0,0.9-0.8,1.1-1.1,1.1c-1,0-1.2-0.7-1.2-1.5h-1
		c0,0.7,0,2.3,2.2,2.3c1.2,0,2.1-0.7,2.1-2c0-1.3-0.8-1.6-1.6-1.8c-0.8-0.3-1.6-0.4-1.6-1.2c0-0.9,0.7-1,1.1-1c0.7,0,1,0.4,1,1.3
		H167.3z M159.8,23.8h1v-4.1c0-1.1,0.8-1.5,1.3-1.5c0.3,0,0.4,0,0.5,0v-1c-0.1,0-0.2-0.1-0.4-0.1c-0.7,0-1.1,0.5-1.4,1.1h0v-1h-1
		V23.8z M158.7,20.6v-0.4c0-1.4-0.2-3.1-2.2-3.1c-2,0-2.3,1.9-2.3,3.5c0,2.2,0.7,3.3,2.3,3.3c1.8,0,2.2-1.6,2.2-2.3h-1
		c0,0.5-0.1,1.5-1.1,1.5c-1.3,0-1.3-1.5-1.3-2.5H158.7z M155.3,19.8v-0.2c0-0.4,0.1-1.7,1.2-1.7c0.9,0,1.1,0.9,1.1,1.6v0.4H155.3z
		 M150.7,23.8h1.2l1.8-6.5h-1.1l-1.2,5.2h0l-1.2-5.2H149L150.7,23.8z M147.1,16.2h1v-1.2h-1V16.2z M147.1,23.8h1v-6.5h-1V23.8z
		 M141.4,23.8h1v-4.5c0-1,0.7-1.3,1.3-1.3c0.9,0,1,0.8,1,1.3v4.5h1v-4.6c0-0.8,0-2.1-1.7-2.1c-0.6,0-1.3,0.3-1.6,0.9h0v-0.8h-1V23.8
		z M140.1,17.2h-1v4.5c0,0.9-0.7,1.3-1.3,1.3c-0.9,0-1-0.8-1-1.3v-4.5h-1v4.6c0,0.8,0,2.1,1.7,2.1c0.6,0,1.3-0.3,1.6-0.9h0v0.8h1
		V17.2z"/>
	<path class="st0" d="M24.7,61.9c-0.1,0.1-0.2,0.1-0.4,0.1c-0.1,0-0.3,0.1-0.5,0.1c-0.2,0-0.4,0-0.6,0c-0.4,0-0.8-0.1-1.1-0.2
		c-0.3-0.1-0.6-0.3-0.9-0.6c-0.3-0.3-0.4-0.6-0.6-0.9c-0.1-0.4-0.2-0.8-0.2-1.2c0-0.5,0.1-0.9,0.2-1.2c0.1-0.4,0.3-0.7,0.6-0.9
		c0.3-0.3,0.6-0.4,0.9-0.6c0.4-0.1,0.8-0.2,1.2-0.2c0.3,0,0.7,0,0.9,0.1c0.3,0.1,0.5,0.2,0.8,0.3c0,0.1-0.1,0.2-0.1,0.3
		c0,0.1,0,0.2-0.1,0.3l0,0c-0.1-0.1-0.1-0.1-0.2-0.2c-0.1-0.1-0.2-0.2-0.3-0.2c-0.1-0.1-0.3-0.1-0.4-0.2c-0.2-0.1-0.3-0.1-0.5-0.1
		c-0.3,0-0.6,0.1-0.9,0.2c-0.3,0.1-0.5,0.3-0.7,0.5c-0.2,0.2-0.3,0.5-0.5,0.8c-0.1,0.3-0.2,0.7-0.2,1.2c0,0.5,0.1,0.8,0.2,1.2
		c0.1,0.3,0.3,0.6,0.5,0.8c0.2,0.2,0.4,0.4,0.7,0.5c0.3,0.1,0.5,0.2,0.9,0.2c0.2,0,0.4,0,0.5-0.1c0.2-0.1,0.3-0.1,0.4-0.2
		c0.1-0.1,0.3-0.1,0.4-0.2c0.1-0.1,0.2-0.1,0.3-0.2l0,0L25,61.8C24.9,61.8,24.8,61.9,24.7,61.9"/>
	<path class="st0" d="M28.6,60c-0.7-0.8-1.4-1.5-2-2.3c0,0.2,0,0.4,0,0.6c0,0.3,0,0.6,0,1.1c0,0.1,0,0.3,0,0.4c0,0.2,0,0.3,0,0.5
		c0,0.2,0,0.4,0,0.6c0,0.2,0,0.4,0,0.5c0,0.2,0,0.3,0,0.4c0,0.1,0,0.2,0,0.3c-0.1,0-0.2,0-0.3,0c-0.1,0-0.2,0-0.3,0
		c0-0.1,0-0.2,0-0.3c0-0.1,0-0.3,0-0.5c0-0.2,0-0.4,0-0.7c0-0.2,0-0.5,0-0.7c0-0.2,0-0.5,0-0.7c0-0.2,0-0.4,0-0.6c0-0.5,0-1,0-1.4
		c0-0.4,0-0.7,0-0.8h0.1c0.3,0.4,0.7,0.8,1,1.2c0.4,0.4,0.7,0.8,1.1,1.2c0.4,0.4,0.7,0.8,1,1.1c0.3,0.4,0.6,0.7,0.8,0.9v-1.1
		c0-0.6,0-1.1,0-1.7c0-0.5,0-1.1,0-1.5c0.1,0,0.2,0,0.3,0c0.1,0,0.1,0,0.2,0c0,0.1,0,0.3,0,0.5c0,0.2,0,0.5,0,0.8c0,0.3,0,0.5,0,0.8
		s0,0.5,0,0.6v0.5c0,0.2,0,0.4,0,0.6c0,0.2,0,0.4,0,0.6c0,0.2,0,0.4,0,0.6c0,0.2,0,0.3,0,0.5v0.3h-0.1C29.9,61.5,29.3,60.7,28.6,60"
		/>
	<path class="st0" d="M32.9,59.6c0.1,0,0.3,0,0.4,0c0.1,0,0.3,0,0.4,0c0.1,0,0.3,0,0.4,0c0.1,0,0.3,0,0.4,0l-0.9-2.1L32.9,59.6z
		 M36.4,62.1c-0.1,0-0.1,0-0.2,0h-0.2h-0.2c-0.1,0-0.1,0-0.2,0c0-0.1-0.1-0.3-0.2-0.5c-0.1-0.2-0.1-0.4-0.2-0.6
		c-0.1-0.2-0.2-0.4-0.2-0.6c-0.1-0.2-0.2-0.4-0.2-0.6c-0.2,0-0.3,0-0.5,0c-0.2,0-0.3,0-0.5,0c-0.2,0-0.3,0-0.5,0c-0.2,0-0.3,0-0.5,0
		c-0.2,0.4-0.3,0.8-0.5,1.2c-0.1,0.4-0.2,0.7-0.3,1c-0.1,0-0.2,0-0.3,0c-0.1,0-0.2,0-0.3,0c0.4-1,0.8-1.9,1.2-2.9
		c0.4-0.9,0.8-1.9,1.2-2.9H34c0.1,0.3,0.3,0.7,0.4,1c0.1,0.4,0.3,0.7,0.4,1.1c0.2,0.4,0.3,0.8,0.5,1.1c0.2,0.4,0.3,0.7,0.4,1
		c0.1,0.3,0.3,0.6,0.4,0.9C36.2,61.8,36.3,62,36.4,62.1"/>
	<rect x="36.8" y="59.9" class="st0" width="1.9" height="0.5"/>
	<path class="st0" d="M43.7,61.9c-0.1,0.1-0.2,0.1-0.4,0.1c-0.1,0-0.3,0.1-0.5,0.1c-0.2,0-0.4,0-0.6,0c-0.4,0-0.8-0.1-1.1-0.2
		c-0.4-0.1-0.7-0.3-0.9-0.6c-0.3-0.3-0.5-0.6-0.6-0.9c-0.1-0.4-0.2-0.8-0.2-1.2c0-0.5,0.1-0.9,0.2-1.2c0.1-0.4,0.3-0.7,0.6-0.9
		c0.3-0.3,0.6-0.4,0.9-0.6c0.4-0.1,0.8-0.2,1.2-0.2c0.3,0,0.7,0,0.9,0.1c0.3,0.1,0.5,0.2,0.8,0.3c0,0.1-0.1,0.2-0.1,0.3
		c0,0.1,0,0.2-0.1,0.3l0,0c-0.1-0.1-0.1-0.1-0.2-0.2c-0.1-0.1-0.2-0.2-0.3-0.2c-0.1-0.1-0.3-0.1-0.4-0.2c-0.2-0.1-0.3-0.1-0.5-0.1
		c-0.3,0-0.6,0.1-0.9,0.2c-0.3,0.1-0.5,0.3-0.7,0.5c-0.2,0.2-0.3,0.5-0.5,0.8c-0.1,0.3-0.2,0.7-0.2,1.2c0,0.5,0.1,0.8,0.2,1.2
		c0.1,0.3,0.3,0.6,0.5,0.8c0.2,0.2,0.4,0.4,0.7,0.5c0.3,0.1,0.5,0.2,0.9,0.2c0.2,0,0.4,0,0.5-0.1c0.2-0.1,0.3-0.1,0.4-0.2
		c0.1-0.1,0.3-0.1,0.4-0.2c0.1-0.1,0.2-0.1,0.3-0.2l0,0l-0.1,0.5C43.8,61.8,43.8,61.9,43.7,61.9"/>
	<path class="st0" d="M44.9,57.7c0-0.2,0-0.4,0-0.6c0-0.2,0-0.4,0-0.6c0-0.2,0-0.4,0-0.5c0.1,0,0.3,0,0.3,0c0.1,0,0.2,0,0.4,0
		c0,0.1,0,0.3,0,0.5c0,0.2,0,0.4,0,0.6c0,0.2,0,0.4,0,0.6c0,0.2,0,0.4,0,0.6v0.6h0c0.1-0.2,0.3-0.4,0.5-0.5c0.2-0.1,0.4-0.2,0.7-0.2
		c0.1,0,0.3,0,0.4,0.1c0.1,0,0.3,0.1,0.4,0.2c0.1,0.1,0.2,0.3,0.3,0.4C48,59,48,59.3,48,59.6c0,0.2,0,0.5,0,0.7c0,0.3,0,0.5,0,0.8
		v0.5c0,0.1,0,0.2,0,0.3c0,0.1,0,0.2,0,0.2c-0.1,0-0.2,0-0.3,0c-0.1,0-0.2,0-0.3,0c0-0.3,0-0.6,0-0.9c0-0.3,0-0.6,0-0.9v-0.5
		c0-0.4-0.1-0.7-0.2-0.9c-0.2-0.2-0.4-0.3-0.6-0.3c-0.4,0-0.6,0.1-0.8,0.4c-0.2,0.2-0.3,0.6-0.3,1c0,0.2,0,0.3,0,0.5
		c0,0.2,0,0.4,0,0.6c0,0.2,0,0.4,0,0.6c0,0.2,0,0.3,0,0.5c-0.1,0-0.2,0-0.4,0c-0.1,0-0.2,0-0.3,0c0-0.1,0-0.3,0-0.5
		c0-0.2,0-0.4,0-0.6c0-0.2,0-0.4,0-0.6c0-0.2,0-0.4,0-0.6v-1.5C44.9,58.1,44.9,57.9,44.9,57.7"/>
	<path class="st0" d="M49.4,59c0-0.3,0-0.5,0-0.8c0.1,0,0.3,0,0.3,0c0.1,0,0.2,0,0.4,0c0,0.2,0,0.5,0,0.8c0,0.3,0,0.5,0,0.8v0.9
		c0,0.2,0,0.5,0,0.8c0,0.3,0,0.5,0,0.7c-0.1,0-0.2,0-0.4,0c-0.1,0-0.2,0-0.3,0c0-0.2,0-0.5,0-0.7c0-0.3,0-0.5,0-0.8v-0.9
		C49.4,59.5,49.4,59.2,49.4,59 M49.4,56.5c0.1-0.1,0.2-0.1,0.3-0.1c0.1,0,0.2,0,0.3,0.1c0.1,0.1,0.1,0.2,0.1,0.3
		c0,0.1,0,0.2-0.1,0.3c-0.1,0.1-0.2,0.1-0.3,0.1c-0.1,0-0.2,0-0.3-0.1c-0.1-0.1-0.1-0.2-0.1-0.3C49.3,56.7,49.4,56.6,49.4,56.5"/>
	<path class="st0" d="M51.6,57.7c0-0.2,0-0.4,0-0.6c0-0.2,0-0.4,0-0.6c0-0.2,0-0.4,0-0.5c0.1,0,0.3,0,0.4,0c0.1,0,0.2,0,0.4,0
		c0,0.1,0,0.3,0,0.5c0,0.2,0,0.4,0,0.6c0,0.2,0,0.4,0,0.6c0,0.2,0,0.4,0,0.6v1.5c0,0.2,0,0.4,0,0.6c0,0.2,0,0.4,0,0.6
		c0,0.2,0,0.4,0,0.6c0,0.2,0,0.4,0,0.5c-0.1,0-0.2,0-0.4,0c-0.1,0-0.2,0-0.4,0c0-0.1,0-0.3,0-0.5c0-0.2,0-0.4,0-0.6
		c0-0.2,0-0.4,0-0.6c0-0.2,0-0.4,0-0.6v-1.5C51.6,58.1,51.6,57.9,51.6,57.7"/>
	<path class="st0" d="M54.6,58.5c-0.1,0.1-0.2,0.2-0.3,0.3c-0.1,0.1-0.2,0.3-0.2,0.5s-0.1,0.3-0.1,0.5c0.2,0,0.3,0,0.5,0
		c0.2,0,0.3,0,0.5,0c0.2,0,0.3,0,0.5,0c0.2,0,0.3,0,0.5,0c0-0.1,0-0.3,0-0.5c0-0.2-0.1-0.3-0.1-0.5c-0.1-0.1-0.2-0.3-0.3-0.4
		c-0.1-0.1-0.3-0.1-0.5-0.1C54.8,58.4,54.7,58.4,54.6,58.5 M53.7,58.7c0.3-0.4,0.7-0.6,1.3-0.6c0.3,0,0.5,0,0.7,0.1
		c0.2,0.1,0.4,0.2,0.5,0.4c0.1,0.2,0.2,0.3,0.3,0.5c0.1,0.2,0.1,0.4,0.1,0.6c0,0.1,0,0.1,0,0.2c0,0.1,0,0.1,0,0.2
		c-0.3,0-0.6,0-0.8,0c-0.3,0-0.6,0-0.8,0c-0.2,0-0.3,0-0.5,0c-0.2,0-0.3,0-0.5,0c0,0,0,0.1,0,0.1v0.1c0,0.2,0,0.4,0.1,0.6
		c0.1,0.2,0.1,0.3,0.3,0.5c0.1,0.1,0.3,0.2,0.4,0.3c0.2,0.1,0.4,0.1,0.6,0.1c0.1,0,0.2,0,0.3,0c0.1,0,0.2-0.1,0.3-0.1
		c0.1-0.1,0.2-0.1,0.3-0.2c0.1-0.1,0.2-0.1,0.2-0.2l0,0l0,0.4c-0.2,0.1-0.3,0.2-0.6,0.3c-0.2,0.1-0.5,0.1-0.7,0.1
		c-0.3,0-0.5,0-0.8-0.1c-0.2-0.1-0.4-0.2-0.6-0.4c-0.2-0.2-0.3-0.4-0.4-0.6c-0.1-0.2-0.1-0.5-0.1-0.8C53.2,59.6,53.4,59.1,53.7,58.7
		"/>
	<path class="st0" d="M7.4,44.8c-0.2,0.2-0.9,0.6-1.8,0.6c-1.8,0-3.2-1.3-3.2-3.6c0-2.3,1.3-3.6,3.3-3.6c0.8,0,1.4,0.2,1.9,0.5
		c-0.1,0.2-0.2,0.6-0.2,0.8l-0.1,0c-0.2-0.3-0.8-0.9-1.7-0.9c-1.4,0-2.4,1-2.4,3.3c0,2.3,1,3.3,2.4,3.3c0.8,0,1.4-0.5,1.8-0.8l0,0
		L7.4,44.8z"/>
	<path class="st0" d="M10.3,45c1,0,1.4-1.1,1.4-2.2c0-1.1-0.3-2.2-1.4-2.2s-1.4,1.1-1.4,2.2C8.9,43.9,9.2,45,10.3,45 M10.3,40.2
		c1,0,2.1,0.7,2.1,2.5c0,1.8-1.1,2.5-2.1,2.5s-2.1-0.7-2.1-2.5C8.1,40.9,9.3,40.2,10.3,40.2"/>
	<path class="st0" d="M13.4,42.2c0-0.6,0-1.3-0.1-1.9c0.1,0,0.3,0,0.4,0c0.1,0,0.2,0,0.3,0c0,0.3,0,0.5,0,0.8h0
		c0.3-0.6,0.7-0.9,1.3-0.9c0.6,0,1.1,0.4,1.3,1h0c0.3-0.7,0.8-1,1.4-1c0.8,0,1.3,0.5,1.3,1.6c0,0.5-0.1,1-0.1,2.2c0,0.4,0,0.7,0,1.1
		c-0.1,0-0.2-0.1-0.4-0.1s-0.3,0-0.4,0.1c0-0.4,0.1-1.4,0.1-3.2c0-0.7-0.2-1.2-0.9-1.2c-0.4,0-0.7,0.2-0.9,0.5
		c-0.2,0.3-0.2,0.4-0.2,2.3c0,0.6,0,1,0,1.6c-0.1,0-0.3-0.1-0.4-0.1c-0.1,0-0.3,0-0.4,0.1c0.1-0.8,0.1-1.6,0.1-2.3
		c0-1.3,0-1.3-0.2-1.7c-0.1-0.3-0.4-0.5-0.7-0.5c-0.8,0-1.1,0.6-1.1,1.7v0.9c0,0.6,0,1.3,0.1,1.9c-0.1,0-0.3-0.1-0.4-0.1
		s-0.3,0-0.4,0.1c0.1-0.6,0.1-1.3,0.1-1.9C13.4,43.3,13.4,42.2,13.4,42.2z"/>
	<path class="st0" d="M20.9,42.2c0-0.6,0-1.3-0.1-1.9c0.1,0,0.3,0.1,0.4,0.1s0.3,0,0.4-0.1c-0.1,0.6-0.1,1.3-0.1,1.9v1.1
		c0,0.6,0,1.3,0.1,1.9c-0.1,0-0.3,0-0.4,0c-0.1,0-0.3,0-0.4,0c0.1-0.6,0.1-1.3,0.1-1.9V42.2z M21.2,38.1c0.2,0,0.4,0.2,0.4,0.5
		c0,0.3-0.2,0.5-0.4,0.5c-0.2,0-0.4-0.2-0.4-0.5C20.8,38.3,21,38.1,21.2,38.1"/>
	<path class="st0" d="M23,44.2c0.1,0.3,0.5,0.7,1,0.7c0.4,0,0.8-0.3,0.8-0.9c0-1.3-2.1-0.5-2.1-2.2c0-0.9,0.5-1.5,1.5-1.5
		c0.4,0,0.7,0.2,1,0.3c-0.1,0.2-0.2,0.6-0.2,0.7h-0.1c-0.1-0.3-0.4-0.6-0.8-0.6c-0.3,0-0.7,0.3-0.7,0.9c0,1.3,2.1,0.5,2.1,2.2
		c0,0.8-0.6,1.6-1.6,1.6c-0.5,0-0.9-0.2-1.1-0.3c0.1-0.2,0.2-0.5,0.2-0.7C22.9,44.2,23,44.2,23,44.2z"/>
	<path class="st0" d="M26.7,42.2c0-0.6,0-1.3-0.1-1.9c0.1,0,0.3,0.1,0.4,0.1s0.3,0,0.4-0.1c-0.1,0.6-0.1,1.3-0.1,1.9v1.1
		c0,0.6,0,1.3,0.1,1.9c-0.1,0-0.3,0-0.4,0s-0.3,0-0.4,0c0.1-0.6,0.1-1.3,0.1-1.9V42.2z M27,38.1c0.2,0,0.4,0.2,0.4,0.5
		c0,0.3-0.2,0.5-0.4,0.5c-0.2,0-0.4-0.2-0.4-0.5C26.6,38.3,26.8,38.1,27,38.1"/>
	<path class="st0" d="M31.4,38c0.1-0.1,0.3-0.2,0.4-0.2c0.1,0,0.3,0.1,0.3,0.3c0,0.2-0.2,0.4-0.3,0.5l-1.3,1h-0.4L31.4,38z M30.7,45
		c1,0,1.4-1.1,1.4-2.2c0-1.1-0.3-2.2-1.4-2.2c-1,0-1.4,1.1-1.4,2.2C29.3,43.9,29.6,45,30.7,45 M30.7,40.2c1,0,2.1,0.7,2.1,2.5
		c0,1.8-1.1,2.5-2.1,2.5c-1,0-2.1-0.7-2.1-2.5C28.5,40.9,29.7,40.2,30.7,40.2"/>
	<path class="st0" d="M35.7,40.8c-0.8,0-1.2,0.6-1.2,1.7v0.9c0,0.6,0,1.3,0.1,1.9c-0.1,0-0.3-0.1-0.4-0.1c-0.1,0-0.3,0-0.4,0.1
		c0.1-0.6,0.1-1.3,0.1-1.9v-1.1c0-0.6,0-1.3-0.1-1.9c0.1,0,0.3,0,0.4,0c0.1,0,0.2,0,0.3,0c0,0.3,0,0.5,0,0.8h0
		c0.3-0.6,0.8-0.9,1.4-0.9c0.6,0,1.4,0.4,1.4,1.8c0,0.6,0,1.2,0,1.9c0,0.5,0,0.9,0,1.3c-0.1,0-0.2-0.1-0.4-0.1c-0.1,0-0.2,0-0.4,0.1
		c0-0.7,0.1-1.5,0.1-2.3v-0.6C36.6,41.3,36.2,40.8,35.7,40.8"/>
	<path class="st0" d="M46.2,45.3c-1.3-1.8-2.9-3.8-4.4-5.6c0,0.4,0,1,0,2.1c0,0.9,0,3,0.1,3.4c-0.1,0-0.2-0.1-0.3-0.1
		s-0.2,0-0.3,0.1c0.1-0.5,0.2-3.1,0.2-4.4c0-1.3,0-2.3,0-2.7h0.1c1.4,1.8,3.4,4.2,4.4,5.5c0-1.8,0-3.8-0.1-5.4
		c0.1,0,0.2,0.1,0.3,0.1c0.1,0,0.2,0,0.3-0.1c-0.1,0.6-0.1,2.6-0.1,3.4c0,1,0,3.3,0,3.7C46.3,45.3,46.2,45.3,46.2,45.3z"/>
	<path class="st0" d="M50.1,42.6c-0.6,0.2-1.8,0.2-1.8,1.3c0,0.6,0.4,1,0.8,1c0.4,0,0.8-0.3,1-0.7L50.1,42.6z M47.9,40.8
		c0.5-0.5,0.9-0.6,1.4-0.6c0.8,0,1.4,0.6,1.4,1.5c0,0.8,0,1.5,0,2.4c0,0.3,0,0.8,0.3,0.8c0.1,0,0.1,0,0.2,0V45
		c-0.1,0.1-0.3,0.1-0.6,0.1c-0.4,0-0.6-0.3-0.6-0.6c-0.4,0.5-0.8,0.7-1.4,0.7c-0.6,0-1.2-0.5-1.2-1.3c0-0.8,0.5-1.2,1.2-1.4
		c1.3-0.2,1.3-0.3,1.3-0.7c0-0.7-0.3-1.3-1-1.3c-0.5,0-0.9,0.3-1.1,0.7h-0.1V40.8z"/>
	<path class="st0" d="M54.2,40.2c0.6,0,1.2,0.2,1.4,0.4c-0.1,0.2-0.1,0.4-0.2,0.7h-0.1c-0.2-0.3-0.6-0.8-1.1-0.8
		c-1.1,0-1.5,0.9-1.5,2.2c0,1.4,0.5,2.1,1.5,2.1c0.5,0,1-0.3,1.3-0.7l0,0c0,0.2,0,0.3-0.1,0.5c-0.3,0.3-0.9,0.6-1.5,0.6
		c-1,0-2.1-0.7-2.1-2.5C51.9,41,53,40.2,54.2,40.2"/>
	<path class="st0" d="M56.8,42.2c0-0.6,0-1.3-0.1-1.9c0.1,0,0.3,0.1,0.4,0.1c0.1,0,0.3,0,0.4-0.1c-0.1,0.6-0.1,1.3-0.1,1.9v1.1
		c0,0.6,0,1.3,0.1,1.9c-0.1,0-0.3,0-0.4,0c-0.1,0-0.3,0-0.4,0c0.1-0.6,0.1-1.3,0.1-1.9V42.2z M57.1,38.1c0.2,0,0.4,0.2,0.4,0.5
		c0,0.3-0.2,0.5-0.4,0.5c-0.2,0-0.4-0.2-0.4-0.5C56.7,38.3,56.9,38.1,57.1,38.1"/>
	<path class="st0" d="M60.8,45c1,0,1.4-1.1,1.4-2.2c0-1.1-0.3-2.2-1.4-2.2c-1,0-1.4,1.1-1.4,2.2C59.4,43.9,59.8,45,60.8,45
		 M60.8,40.2c1,0,2.1,0.7,2.1,2.5c0,1.8-1.1,2.5-2.1,2.5s-2.1-0.7-2.1-2.5C58.7,40.9,59.8,40.2,60.8,40.2"/>
	<path class="st0" d="M65.8,40.8c-0.8,0-1.2,0.6-1.2,1.7v0.9c0,0.6,0,1.3,0.1,1.9c-0.1,0-0.3-0.1-0.4-0.1c-0.1,0-0.3,0-0.4,0.1
		c0.1-0.6,0.1-1.3,0.1-1.9v-1.1c0-0.6,0-1.3-0.1-1.9c0.1,0,0.3,0,0.4,0c0.1,0,0.2,0,0.3,0c0,0.3,0,0.5,0,0.8h0
		c0.3-0.6,0.8-0.9,1.4-0.9c0.6,0,1.4,0.4,1.4,1.8c0,0.6,0,1.2,0,1.9c0,0.5,0,0.9,0,1.3c-0.1,0-0.2-0.1-0.4-0.1c-0.1,0-0.2,0-0.4,0.1
		c0-0.7,0.1-1.5,0.1-2.3v-0.6C66.7,41.3,66.4,40.8,65.8,40.8"/>
	<path class="st0" d="M71,42.6c-0.6,0.2-1.8,0.2-1.8,1.3c0,0.6,0.4,1,0.8,1c0.4,0,0.8-0.3,1-0.7L71,42.6z M68.8,40.8
		c0.5-0.5,0.9-0.6,1.4-0.6c0.8,0,1.4,0.6,1.4,1.5c0,0.8,0,1.5,0,2.4c0,0.3,0,0.8,0.3,0.8c0.1,0,0.1,0,0.2,0V45
		c-0.1,0.1-0.3,0.1-0.6,0.1c-0.4,0-0.6-0.3-0.6-0.6c-0.4,0.5-0.8,0.7-1.4,0.7c-0.6,0-1.2-0.5-1.2-1.3c0-0.8,0.5-1.2,1.2-1.4
		c1.3-0.2,1.3-0.3,1.3-0.7c0-0.7-0.3-1.3-1-1.3c-0.5,0-0.9,0.3-1.1,0.7h-0.1V40.8z"/>
	<path class="st0" d="M73.3,40.4c0-0.9,0-2.2-0.1-2.9c0.1,0,0.3,0.1,0.4,0.1c0.1,0,0.3,0,0.4-0.1c-0.1,0.7-0.1,2-0.1,2.9v1.8
		c0,0.9,0,2.2,0.1,2.9c-0.1,0-0.3-0.1-0.4-0.1c-0.1,0-0.3,0-0.4,0.1c0.1-0.7,0.1-2,0.1-2.9V40.4z"/>
	<path class="st0" d="M11.1,53.8c0.9,0,1.3-1.1,1.3-2.3c0-1.3-0.4-2-1.3-2c-0.8,0-1.2,1-1.2,2.2C9.9,53.3,10.5,53.8,11.1,53.8
		 M12.4,53.1L12.4,53.1c-0.2,0.4-0.6,1.1-1.5,1.1c-0.9,0-1.8-0.8-1.8-2.5c0-1.7,1-2.6,1.9-2.6c0.6,0,1.1,0.4,1.3,1h0
		c0-1.3,0-2.9,0-3.7c0.1,0,0.3,0.1,0.4,0.1c0.1,0,0.2,0,0.4-0.1C13,47.2,13,49.9,13,51.6c0,0.9,0,1.6,0,2.4c-0.1,0-0.2,0-0.3,0
		c-0.1,0-0.2,0-0.3,0L12.4,53.1z"/>
	<path class="st0" d="M14.7,51.2c0.4,0,0.8,0,1.1,0c0.4,0,0.8,0,1.2,0c0-0.7-0.2-1.8-1.1-1.8C15.1,49.4,14.7,50.4,14.7,51.2
		 M15.9,49.1c1.2,0,1.8,0.9,1.8,2.1c0,0.1,0,0.3,0,0.4c-0.6,0-1.2,0-1.9,0c-0.4,0-0.8,0-1.1,0c0,0.1,0,0.2,0,0.3
		c0,1.1,0.5,1.9,1.5,1.9c0.5,0,1-0.3,1.3-0.7l0,0l-0.1,0.5c-0.3,0.3-0.9,0.6-1.5,0.6c-1.3,0-2.1-1-2.1-2.4
		C13.9,50.1,14.6,49.1,15.9,49.1"/>
	<path class="st0" d="M22.8,48.3l-1,2.6c0.3,0,0.6,0,0.9,0c0.3,0,0.7,0,1,0L22.8,48.3z M23.1,46.9c0.9,2.4,2.2,6.1,2.6,7.1
		c-0.2,0-0.3,0-0.5,0c-0.2,0-0.3,0-0.5,0c-0.2-0.7-0.6-1.8-0.9-2.7c-0.4,0-0.8,0-1.1,0c-0.4,0-0.7,0-1.1,0c-0.4,1-0.7,2.1-0.8,2.7
		c-0.1,0-0.2,0-0.3,0c-0.1,0-0.2,0-0.3,0c0.9-2.4,1.8-4.7,2.7-7.1H23.1z"/>
	<path class="st0" d="M28.5,49.1c0.6,0,1.2,0.2,1.4,0.4c-0.1,0.2-0.1,0.4-0.2,0.7h-0.1c-0.2-0.3-0.6-0.8-1.1-0.8
		c-1.1,0-1.5,0.9-1.5,2.2c0,1.4,0.5,2.1,1.5,2.1c0.5,0,1-0.3,1.3-0.7l0,0c0,0.2,0,0.3-0.1,0.5c-0.4,0.3-0.9,0.6-1.5,0.6
		c-1,0-2.1-0.7-2.1-2.5C26.3,49.9,27.4,49.1,28.5,49.1"/>
	<path class="st0" d="M32.9,50c-0.1-0.1-0.3-0.2-0.4-0.2c-0.6,0-0.9,0.6-0.9,1.4c0,1.8,0,2.3,0,2.8c-0.1,0-0.2,0-0.4,0
		c-0.1,0-0.2,0-0.4,0c0-0.5,0-1.3,0-2.4v-0.3c0-0.5,0-1.2,0-2.1c0.1,0,0.2,0.1,0.4,0.1c0.1,0,0.2,0,0.4-0.1c0,0.5,0,0.7,0,1l0,0
		c0.3-0.7,0.8-1.1,1.2-1.1c0.1,0,0.2,0,0.3,0.1C33,49.3,33,49.7,32.9,50L32.9,50z"/>
	<path class="st0" d="M34.3,51.2c0.4,0,0.8,0,1.1,0c0.4,0,0.8,0,1.2,0c0-0.7-0.2-1.8-1.1-1.8C34.6,49.4,34.3,50.4,34.3,51.2
		 M35.5,49.1c1.2,0,1.8,0.9,1.8,2.1c0,0.1,0,0.3,0,0.4c-0.6,0-1.3,0-1.9,0c-0.4,0-0.8,0-1.1,0c0,0.1,0,0.2,0,0.3
		c0,1.1,0.5,1.9,1.5,1.9c0.5,0,1-0.3,1.3-0.7l0,0l-0.1,0.5c-0.4,0.3-0.9,0.6-1.5,0.6c-1.3,0-2.1-1-2.1-2.4
		C33.5,50.1,34.2,49.1,35.5,49.1"/>
	<path class="st0" d="M39.9,53.8c0.9,0,1.3-1.1,1.3-2.3c0-1.3-0.4-2-1.3-2c-0.8,0-1.2,1-1.2,2.2C38.7,53.3,39.3,53.8,39.9,53.8
		 M41.2,53.1L41.2,53.1c-0.2,0.4-0.6,1.1-1.5,1.1c-0.9,0-1.8-0.8-1.8-2.5c0-1.7,1-2.6,1.9-2.6c0.6,0,1.1,0.4,1.3,1h0
		c0-1.3,0-2.9,0-3.7c0.1,0,0.3,0.1,0.4,0.1c0.1,0,0.2,0,0.4-0.1c-0.1,0.9-0.1,3.5-0.1,5.3c0,0.9,0,1.6,0,2.4c-0.1,0-0.2,0-0.3,0
		c-0.1,0-0.2,0-0.3,0L41.2,53.1z"/>
	<path class="st0" d="M43.3,51.1c0-0.6,0-1.3-0.1-1.9c0.1,0,0.3,0.1,0.4,0.1c0.1,0,0.3,0,0.4-0.1c-0.1,0.6-0.1,1.3-0.1,1.9v1.1
		c0,0.6,0,1.3,0.1,1.9c-0.1,0-0.3,0-0.4,0c-0.1,0-0.3,0-0.4,0c0.1-0.6,0.1-1.3,0.1-1.9V51.1z M43.6,46.9c0.2,0,0.4,0.2,0.4,0.5
		S43.9,48,43.6,48c-0.2,0-0.4-0.2-0.4-0.5S43.4,46.9,43.6,46.9"/>
	<path class="st0" d="M46.3,47.8L46.3,47.8c0,0.5,0,1,0,1.5c0.1,0,0.5,0,0.9,0c0,0.1,0,0.1,0,0.2c0,0.1,0,0.1,0,0.2
		c-0.3,0-0.7,0-0.9,0c0,0.1-0.1,1.7-0.1,2.6c0,0.8,0,1.5,0.7,1.5c0.1,0,0.3,0,0.4-0.1V54c-0.2,0.1-0.5,0.2-0.7,0.2
		c-0.7,0-1.1-0.5-1.1-1.3c0-0.7,0.1-1.7,0.1-3.2c-0.2,0-0.4,0-0.6,0c0-0.1,0-0.2,0-0.2c0-0.1,0-0.1,0-0.2c0.3,0,0.5,0,0.6,0
		c0-0.3,0-0.7,0-1.1L46.3,47.8z"/>
	<path class="st0" d="M50.2,51.5c-0.6,0.2-1.8,0.2-1.8,1.3c0,0.6,0.4,1,0.8,1c0.4,0,0.8-0.3,1-0.7L50.2,51.5z M48,49.7
		c0.5-0.5,0.9-0.6,1.4-0.6c0.8,0,1.4,0.6,1.4,1.5c0,0.8,0,1.5,0,2.4c0,0.3,0,0.8,0.3,0.8c0.1,0,0.1,0,0.2,0v0.2
		C51.2,54,51,54,50.8,54c-0.4,0-0.6-0.3-0.6-0.6c-0.4,0.5-0.8,0.7-1.4,0.7c-0.6,0-1.2-0.5-1.2-1.2c0-0.8,0.5-1.3,1.2-1.4
		c1.3-0.2,1.3-0.3,1.3-0.7c0-0.7-0.3-1.3-1-1.3c-0.5,0-0.9,0.3-1.1,0.7H48C48,50.2,48,49.7,48,49.7z"/>
	<path class="st0" d="M54.2,49.1c0.6,0,1.2,0.2,1.4,0.4c-0.1,0.2-0.2,0.4-0.2,0.7h-0.1c-0.2-0.3-0.6-0.8-1.1-0.8
		c-1.1,0-1.5,0.9-1.5,2.2c0,1.4,0.5,2.1,1.5,2.1c0.5,0,1-0.3,1.3-0.7l0,0c0,0.2,0,0.3-0.1,0.5c-0.3,0.3-0.9,0.6-1.5,0.6
		c-1,0-2.1-0.7-2.1-2.5C52,49.9,53.1,49.1,54.2,49.1"/>
	<path class="st0" d="M56.9,51.1c0-0.6,0-1.3-0.1-1.9c0.1,0,0.3,0.1,0.4,0.1c0.1,0,0.3,0,0.4-0.1c-0.1,0.6-0.1,1.3-0.1,1.9v1.1
		c0,0.6,0,1.3,0.1,1.9c-0.1,0-0.3,0-0.4,0c-0.1,0-0.3,0-0.4,0c0.1-0.6,0.1-1.3,0.1-1.9V51.1z M57.2,46.9c0.2,0,0.4,0.2,0.4,0.5
		S57.5,48,57.2,48c-0.2,0-0.4-0.2-0.4-0.5S57,46.9,57.2,46.9"/>
	<path class="st0" d="M61.6,46.8c0.1-0.1,0.3-0.2,0.4-0.2c0.1,0,0.3,0.1,0.3,0.3c0,0.2-0.2,0.4-0.3,0.5l-1.3,1h-0.4L61.6,46.8z
		 M60.9,53.8c1,0,1.4-1.1,1.4-2.2c0-1.1-0.3-2.2-1.4-2.2s-1.4,1.1-1.4,2.2C59.5,52.8,59.8,53.8,60.9,53.8 M60.9,49.1
		c1,0,2.1,0.7,2.1,2.5c0,1.8-1.1,2.5-2.1,2.5c-1,0-2.1-0.7-2.1-2.5C58.7,49.8,59.9,49.1,60.9,49.1"/>
	<path class="st0" d="M65.9,49.6c-0.8,0-1.2,0.6-1.2,1.7v0.9c0,0.6,0,1.3,0.1,1.9c-0.1,0-0.3-0.1-0.4-0.1c-0.1,0-0.3,0-0.4,0.1
		c0.1-0.6,0.1-1.3,0.1-1.9v-1.1c0-0.6,0-1.3-0.1-1.9c0.1,0,0.3,0,0.4,0c0.1,0,0.2,0,0.4,0c0,0.3,0,0.5,0,0.8h0
		c0.3-0.6,0.8-0.9,1.4-0.9c0.6,0,1.4,0.4,1.4,1.8c0,0.6,0,1.2,0,1.9c0,0.4,0,0.9,0,1.3c-0.1,0-0.2-0.1-0.4-0.1s-0.2,0-0.4,0.1
		c0-0.7,0.1-1.5,0.1-2.3v-0.6C66.8,50.2,66.4,49.6,65.9,49.6"/>
	<polygon class="st0" points="45.1,29.3 38.2,34.7 47.3,34.7 	"/>
	<path class="st0" d="M29,34.7h-6.4L34.2,7.6c0-0.1,0.1-0.2,0.3-0.2h7.8c0.1,0,0.2,0.1,0.3,0.2l7.8,17.5l-5.3,4.2l-6.7-15l-8.6,19.9
		C29.7,34.5,29.3,34.7,29,34.7"/>
	<path class="st0" d="M54.5,34.5l-4.2-9.4l13.8-11l-8.9,20.4c-0.1,0.1-0.2,0.2-0.4,0.2C54.7,34.7,54.6,34.6,54.5,34.5"/>
	<line class="st1" x1="86.5" y1="7.5" x2="86.5" y2="62.1"/>
	<line class="st1" x1="198.9" y1="7.5" x2="198.9" y2="62.1"/>
	<path class="st0" d="M180.9,32.9c0,0.7-0.6,1.2-1.3,1.2c-0.7,0-0.9-0.5-0.9-1.1c0-0.6,0.2-0.8,0.5-1c0.5-0.3,1.4-0.4,1.7-0.8V32.9z
		 M178.8,30.3L178.8,30.3c0-0.3,0-1.3,1.1-1.3c0.7,0,1,0.4,1,1c0,0.5,0,0.8-0.7,1l-1.4,0.4c-0.8,0.3-1.2,0.9-1.2,1.8
		c0,1.2,0.6,1.9,1.8,1.9c0.6,0,1.2-0.4,1.6-0.9h0c0.1,0.8,0.5,0.8,0.9,0.8c0.3,0,0.5,0,0.6-0.1v-0.7c-0.1,0-0.1,0.1-0.2,0.1
		c-0.3,0-0.3-0.3-0.3-0.5V30c0-0.7,0-1.9-2-1.9c-1.6,0-2.2,0.7-2.2,2.1C177.8,30.3,178.8,30.3,178.8,30.3z M176.6,26.1h-1V29h0
		c-0.2-0.6-0.9-0.9-1.4-0.9c-1.8,0-2.1,2.1-2.1,3.4c0,2.1,0.6,3.4,2.1,3.4c0.7,0,1.3-0.5,1.4-1h0v0.8h1L176.6,26.1L176.6,26.1z
		 M173.2,31.5c0-1.6,0.2-2.6,1.2-2.6c1.1,0,1.3,1.3,1.3,2.6c0,1.5-0.2,2.6-1.3,2.6C173.4,34.1,173.2,33.1,173.2,31.5 M169.9,32.9
		c0,0.7-0.6,1.2-1.3,1.2c-0.7,0-0.9-0.5-0.9-1.1c0-0.6,0.2-0.8,0.5-1c0.5-0.3,1.4-0.4,1.7-0.8V32.9z M167.8,30.3L167.8,30.3
		c0-0.3,0-1.3,1.1-1.3c0.7,0,1,0.4,1,1c0,0.5,0,0.8-0.7,1l-1.4,0.4c-0.8,0.3-1.2,0.9-1.2,1.8c0,1.2,0.6,1.9,1.8,1.9
		c0.6,0,1.2-0.4,1.6-0.9h0c0,0.8,0.5,0.8,0.9,0.8c0.3,0,0.5,0,0.6-0.1v-0.7c-0.1,0-0.1,0.1-0.2,0.1c-0.3,0-0.3-0.3-0.3-0.5V30
		c0-0.7,0-1.9-2-1.9c-1.6,0-2.2,0.7-2.2,2.1C166.8,30.3,167.8,30.3,167.8,30.3z M164.1,28.3h-0.9v0.8h0.9v4.5c0,0.8,0.3,1.3,1.3,1.3
		c0.4,0,0.7,0,0.8-0.1V34c-0.1,0-0.2,0-0.4,0c-0.5,0-0.7-0.2-0.7-0.7v-4.2h1.1v-0.8h-1.1v-1.9h-1L164.1,28.3L164.1,28.3z
		 M161.4,27.3h1v-1.2h-1V27.3z M161.4,34.8h1v-6.5h-1V34.8z M160,26.1h-1V29h0c-0.2-0.6-0.9-0.9-1.4-0.9c-1.8,0-2.1,2.1-2.1,3.4
		c0,2.1,0.6,3.4,2.1,3.4c0.7,0,1.3-0.5,1.4-1h0v0.8h1L160,26.1L160,26.1z M156.5,31.5c0-1.6,0.2-2.6,1.2-2.6c1.1,0,1.3,1.3,1.3,2.6
		c0,1.5-0.2,2.6-1.3,2.6C156.7,34.1,156.5,33.1,156.5,31.5 M154.6,31.7v-0.4c0-1.4-0.2-3.1-2.2-3.1c-2,0-2.3,1.9-2.3,3.5
		c0,2.2,0.7,3.3,2.3,3.3c1.8,0,2.2-1.6,2.2-2.3h-1c0,0.5-0.1,1.5-1.1,1.5c-1.3,0-1.3-1.5-1.3-2.5C151.1,31.7,154.6,31.7,154.6,31.7z
		 M151.2,30.9v-0.2c0-0.4,0.1-1.7,1.2-1.7c0.9,0,1.1,0.9,1.1,1.6v0.4C153.5,30.9,151.2,30.9,151.2,30.9z M146.7,34.8h1v-4.1
		c0-1.1,0.8-1.5,1.3-1.5c0.3,0,0.4,0,0.5,0v-1c-0.1-0.1-0.2-0.1-0.4-0.1c-0.7,0-1.1,0.5-1.4,1.1h0v-1h-1V34.8z M145.6,30.3
		c0-0.7-0.3-2.1-2.1-2.1c-2,0-2.3,1.9-2.3,3.5c0,2.2,0.7,3.4,2.3,3.4c1.6,0,2.1-1.4,2.1-2.4h-1c0,0.7-0.2,1.6-1.1,1.6
		c-1.2,0-1.2-1.7-1.2-2.6c0-2.4,0.6-2.7,1.3-2.7c0.8,0,1,0.7,1,1.3C144.6,30.3,145.6,30.3,145.6,30.3z M139.1,32.9
		c0,0.7-0.6,1.2-1.3,1.2c-0.7,0-0.9-0.5-0.9-1.1c0-0.6,0.2-0.8,0.5-1c0.5-0.3,1.4-0.4,1.7-0.8V32.9z M137,30.3L137,30.3
		c0-0.3,0-1.3,1.1-1.3c0.7,0,1,0.4,1,1c0,0.5,0,0.8-0.7,1l-1.4,0.4c-0.8,0.3-1.2,0.9-1.2,1.8c0,1.2,0.6,1.9,1.8,1.9
		c0.6,0,1.2-0.4,1.6-0.9h0c0,0.8,0.5,0.8,0.9,0.8c0.3,0,0.5,0,0.6-0.1v-0.7c0,0-0.1,0.1-0.2,0.1c-0.3,0-0.3-0.3-0.3-0.5V30
		c0-0.7,0-1.9-2-1.9c-1.6,0-2.2,0.7-2.2,2.1C135.9,30.3,137,30.3,137,30.3z"/>
	<path class="st0" d="M186.5,50.8c0-1.9-0.2-5.1-4.9-5.1c-2.8,0-5.1,1.4-5.1,4.4c0,3.3,2,3.9,4,4.6c2,0.7,3.9,1.1,3.9,3.3
		c0,2.3-1.9,2.7-2.7,2.7c-2.5,0-3-1.8-3-3.7h-2.5c0,1.7,0.1,5.7,5.5,5.7c3,0,5.2-1.7,5.2-5c0-3.2-2-3.9-3.9-4.5c-2-0.7-4-1-4-2.9
		c0-2.3,1.8-2.5,2.6-2.5c1.8,0,2.4,1.1,2.4,3.2H186.5z M168.7,60.6c-2.6,0-3.1-3-3.1-6.5c0-3.5,0.5-6.5,3.1-6.5c2.7,0,3.2,3,3.2,6.5
		C172,57.6,171.4,60.6,168.7,60.6 M163,54.1c0,4.5,1.1,8.5,5.8,8.5c4.6,0,5.8-3.9,5.8-8.5c0-4.5-1.1-8.5-5.8-8.5
		C164.2,45.6,163,49.6,163,54.1 M158,39.9c-0.1,0.5-0.3,1.3-1.1,1.3c-0.4,0-1-0.3-1.6-0.6c-0.6-0.3-1.2-0.6-1.8-0.6
		c-1.6,0-2.8,1.6-2.8,3.3h1.6c0.1-0.5,0.4-1.4,1.2-1.4c0.6,0,2.2,1.1,3.5,1.1c1.7,0,2.6-1.8,2.6-3.3C159.6,39.9,158,39.9,158,39.9z
		 M149.9,62.1h2.5V51c0-2.3,1.8-3.2,3.2-3.2c2.3,0,2.4,2,2.4,3.2v11.1h2.5V50.7c0-1.9,0-5.1-4.2-5.1c-1.6,0-3.2,0.8-3.9,2.3h-0.1V46
		h-2.4V62.1z M144,57.5c0,1.6-1.6,3.1-3.2,3.1c-1.7,0-2.3-1.1-2.3-2.8c0-1.4,0.4-2,1.2-2.5c1.1-0.7,3.4-0.9,4.3-1.9L144,57.5
		L144,57.5z M138.7,50.9v-0.2c0-0.6,0-3.2,2.8-3.2c1.7,0,2.6,0.9,2.6,2.4c0,1.3,0,1.9-1.8,2.4l-3.4,1c-2.1,0.6-3,2.2-3,4.4
		c0,2.9,1.4,4.7,4.4,4.7c1.5,0,3.1-0.9,3.9-2.3h0.1c0.1,2.1,1.3,2.1,2.3,2.1c0.6,0,1.3-0.1,1.5-0.2v-1.8c-0.1,0.1-0.3,0.2-0.6,0.2
		c-0.8,0-0.8-0.6-0.8-1.3v-9c0-1.7,0-4.6-4.9-4.6c-3.8,0-5.4,1.6-5.4,5.3C136.2,50.9,138.7,50.9,138.7,50.9z"/>
	<path class="st0" d="M130.6,11.1H93.8l-0.1,9.2h26c-2.5,2.5-5.7,6.8-9.5,13.1c-5.8,10.1-8.9,19.8-9.2,29.2h10.6
		c0-3,0.6-6.8,1.8-11.5c1.2-4.7,2.5-8.6,4-11.9c1.9-4.1,4.1-8.1,6.9-12c2.7-3.9,4.9-6.6,6.4-8.1V11.1z"/>
</g>
</svg>
