<?xml version="1.0" encoding="utf-8"?>
<!-- Generator: Adobe Illustrator 24.1.1, SVG Export Plug-In . SVG Version: 6.00 Build 0)  -->
<svg version="1.1" id="Layer_1" xmlns="http://www.w3.org/2000/svg" xmlns:xlink="http://www.w3.org/1999/xlink" x="0px" y="0px"
	 viewBox="0 0 512 512" style="enable-background:new 0 0 512 512;" xml:space="preserve">
<g>
	<path d="M44.2,83l101.3,89.1L235.7,61c9.3-11.4,26-13.1,37.5-3.8l4.2,4.3L363.5,172L468,81.7c11.1-9.6,27.9-8.4,37.5,2.8
		c5,5.8,7.3,13.6,6.2,21.2L471.8,381h-431L0.3,106.9c-2.2-14.5,7.9-28.1,22.4-30.3C30.4,75.4,38.3,77.8,44.2,83z M42.9,407.6h425.8
		v26.6c0,14.7-11.9,26.6-26.6,26.6H69.5c-14.7,0-26.6-11.9-26.6-26.6V407.6z"/>
</g>
</svg>
