<svg version="1.0" xmlns="http://www.w3.org/2000/svg"
 width="500.000000pt" height="500.000000pt" viewBox="0 0 500.000000 500.000000"
 preserveAspectRatio="xMidYMid meet">

<g transform="translate(0.000000,500.000000) scale(0.100000,-0.100000)"
fill="white" stroke="none">
<path d="M1640 4344 c-459 -284 -836 -517 -838 -518 -1 -2 32 -229 73 -506 42
-277 75 -515 73 -529 -2 -20 -75 -76 -385 -295 -210 -149 -382 -275 -382 -281
-1 -5 194 -437 432 -960 l433 -950 1454 0 1454 0 433 950 c238 523 433 955
432 960 0 6 -172 132 -382 281 -310 219 -383 275 -385 295 -2 14 31 252 73
529 41 277 74 504 73 505 -2 2 -376 234 -833 516 -504 312 -842 515 -860 517
-25 3 -172 -85 -865 -514z m1148 -472 l264 -87 177 -343 c98 -189 184 -349
192 -356 8 -7 35 -21 61 -30 25 -9 51 -22 56 -29 19 -24 362 -740 362 -756 0
-9 -31 -58 -70 -108 -38 -50 -70 -101 -70 -113 0 -11 43 -79 95 -151 52 -71
95 -135 95 -141 0 -19 -401 -1031 -414 -1045 -11 -12 -999 -263 -1035 -263
-43 0 -1017 272 -1032 288 -19 20 -419 979 -419 1004 0 10 47 82 105 161 58
80 105 152 105 161 0 10 -27 53 -60 96 -33 43 -60 87 -60 97 0 18 325 761 340
777 5 5 37 21 71 35 l63 26 175 350 176 350 55 18 c30 10 141 47 245 82 105
35 206 63 225 64 19 0 154 -39 298 -87z"/>
<path d="M2265 3786 l-220 -73 -132 -259 c-73 -142 -132 -265 -133 -271 0 -7
8 -13 18 -13 29 0 392 144 392 156 0 6 -9 19 -21 30 -36 32 -49 70 -49 139 0
116 51 185 135 185 91 0 154 -100 141 -221 -4 -34 -3 -59 2 -59 5 0 29 7 52
15 40 14 47 14 97 -5 30 -11 58 -20 62 -20 5 0 9 37 8 83 0 95 16 141 63 181
24 20 43 26 77 26 40 0 51 -5 83 -39 69 -72 69 -225 1 -285 -43 -39 -31 -47
182 -128 111 -43 208 -78 215 -78 7 0 12 6 12 13 0 6 -62 131 -138 277 l-137
265 -235 77 c-129 42 -239 77 -245 76 -5 0 -109 -33 -230 -72z"/>
<path d="M2450 3306 c-14 -7 -216 -87 -450 -176 -234 -90 -430 -168 -436 -174
-14 -13 -304 -666 -304 -684 0 -9 487 -670 519 -704 3 -3 101 -9 216 -13 l210
-6 128 91 c81 59 127 98 127 110 0 14 -424 645 -586 873 -40 56 -44 93 -11
107 12 5 158 41 325 81 l302 73 323 -78 c177 -42 332 -81 345 -86 14 -6 22
-18 22 -34 0 -15 -114 -182 -320 -471 -176 -246 -320 -456 -320 -466 0 -11 45
-53 117 -108 l117 -91 227 0 227 0 108 142 c123 161 285 372 380 497 35 46 64
89 64 96 0 6 -72 160 -159 340 l-159 329 -479 183 c-263 100 -485 183 -493
182 -8 0 -26 -6 -40 -13z"/>
<path d="M2260 2724 c-113 -29 -217 -55 -232 -58 -17 -3 -28 -12 -28 -22 0
-12 329 -506 475 -711 9 -13 22 -23 29 -23 17 0 529 717 523 733 -5 13 -507
138 -542 136 -11 -1 -112 -26 -225 -55z m118 -139 c28 -23 38 -25 130 -25 91
0 105 2 138 25 52 35 79 32 125 -14 42 -42 47 -63 25 -114 -16 -39 -54 -67
-104 -74 -47 -7 -72 -29 -72 -63 0 -32 -34 -85 -72 -113 -63 -47 -165 44 -144
129 11 41 50 74 89 74 18 0 42 7 53 15 17 13 12 14 -60 15 -69 0 -82 -3 -108
-25 -42 -36 -82 -33 -124 9 -28 28 -34 42 -34 76 0 34 6 48 34 76 42 42 82 45
124 9z"/>
<path d="M2275 2555 c-29 -28 -34 -85 -9 -109 25 -26 89 -21 112 9 19 24 25
25 125 25 66 0 108 -4 113 -11 3 -6 -11 -28 -32 -50 -31 -32 -45 -39 -76 -39
-49 0 -78 -28 -78 -74 0 -25 7 -40 26 -55 56 -44 124 -12 124 57 0 53 59 112
113 112 48 0 77 28 77 75 0 70 -77 101 -124 50 -22 -24 -29 -25 -134 -25 -109
0 -111 0 -140 30 -37 36 -65 38 -97 5z m62 -51 c8 -21 -13 -42 -28 -27 -13 13
-5 43 11 43 6 0 13 -7 17 -16z m380 0 c8 -21 -13 -42 -28 -27 -13 13 -5 43 11
43 6 0 13 -7 17 -16z m-198 -188 c8 -10 8 -16 -3 -25 -10 -9 -16 -8 -26 3 -12
15 -6 36 9 36 5 0 14 -6 20 -14z"/>
<path d="M1246 1849 c-56 -79 -77 -116 -74 -133 3 -12 87 -221 189 -463 l183
-440 451 -123 c247 -68 466 -127 485 -132 30 -8 108 9 504 111 257 65 472 123
476 128 13 13 370 923 370 942 0 26 -140 212 -157 209 -8 -2 -99 -113 -202
-248 l-188 -245 -275 -3 -276 -2 -32 26 c-82 69 -186 144 -200 144 -8 0 -68
-39 -134 -86 l-118 -86 -263 7 -262 8 -187 248 c-102 137 -192 249 -199 249
-6 -1 -47 -50 -91 -111z"/>
</g>
</svg>
